# xmcd
#
# Track frame offsets:
#	150
#	21250
#	73835
#	115330
#	158925
#	200635
#	233680
#	277375
#	306615
#
# Disc length: 4487 seconds
# Revision: 0
# Processed by: cddbd v1.5.2PL0 Copyright (c) Steve Scherf et al.
# Submitted via: dBpowerAMP V12.0
#
DISCID=8d118509
DTITLE=Marty Thomas - Resurrect Me (Lift Me Up)
DYEAR=2001
DGENRE=Gospel House
TTITLE0=Resurrect Me (Lift Me Up) [Hex’s Live Vibe Radio Mix]
TTITLE1=Resurrect Me (Lift Me Up) [RAW Club Remix]
TTITLE2=Resurrect Me (Lift Me Up) [RAW Original Production]
TTITLE3=Resurrect Me (Lift Me Up) [A Tom Moulton Mix]
TTITLE4=Resurrect Me (Lift Me Up) [Shelter Mix (Timmy Regisford/Blaze)]
TTITLE5=Resurrect Me (Lift Me Up) [Hex’s Live Vibe Mix]
TTITLE6=Resurrect Me (Lift Me Up) [Julian Marsh Power Drive Mix]
TTITLE7=Resurrect Me (Lift Me Up) [Shelter Dub (Timmy Regisford/Blaze)]]
TTITLE8=Resurrect Me (Lift Me Up) [Hex’s Live Vibe Dub]
EXTD=
EXTT0=
EXTT1=
EXTT2=
EXTT3=
EXTT4=
EXTT5=
EXTT6=
EXTT7=
EXTT8=
PLAYORDER=
